<?xml version="1.0" encoding="UTF-8" standalone="no"?>
<!-- Created with Inkscape (http://www.inkscape.org/) -->

<svg
   version="1.1"
   id="svg41975"
   xml:space="preserve"
   width="1066.6667"
   height="1066.6667"
   viewBox="0 0 1066.6667 1066.6667"
   sodipodi:docname="cupcake-clip-art-publicdomainvectors.org.svg"
   inkscape:version="1.1.2 (b8e25be833, 2022-02-05)"
   xmlns:inkscape="http://www.inkscape.org/namespaces/inkscape"
   xmlns:sodipodi="http://sodipodi.sourceforge.net/DTD/sodipodi-0.dtd"
   xmlns="http://www.w3.org/2000/svg"
   xmlns:svg="http://www.w3.org/2000/svg"><defs
     id="defs41979"><clipPath
       clipPathUnits="userSpaceOnUse"
       id="clipPath41989"><path
         d="M 0,800 H 800 V 0 H 0 Z"
         id="path41987" /></clipPath></defs><sodipodi:namedview
     id="namedview41977"
     pagecolor="#ffffff"
     bordercolor="#666666"
     borderopacity="1.0"
     inkscape:pageshadow="2"
     inkscape:pageopacity="0.0"
     inkscape:pagecheckerboard="0"
     showgrid="false"
     inkscape:zoom="0.77906244"
     inkscape:cx="533.33337"
     inkscape:cy="533.33337"
     inkscape:window-width="1920"
     inkscape:window-height="1018"
     inkscape:window-x="-8"
     inkscape:window-y="-8"
     inkscape:window-maximized="1"
     inkscape:current-layer="g41981" /><g
     id="g41981"
     inkscape:groupmode="layer"
     inkscape:label="cupcake-clip-art-publicdomainvectors.org"
     transform="matrix(1.3333333,0,0,-1.3333333,0,1066.6667)"><g
       id="g41983"><g
         id="g41985"
         clip-path="url(#clipPath41989)"><path
           d="m 457.773,62.991 c 134.609,0 244.396,33.351 244.396,74.237 0,40.887 -109.787,74.236 -244.396,74.236 -134.607,0 -244.394,-33.349 -244.394,-74.236 0,-40.886 109.787,-74.237 244.394,-74.237"
           style="fill:#e6e6e6;fill-opacity:1;fill-rule:evenodd;stroke:none"
           id="path41991" /><path
           d="m 585.771,143.962 c 0,-43.9 -84.375,-79.491 -188.455,-79.491 -104.081,0 -188.455,35.591 -188.455,79.491 -2.257,105.181 -14.884,211.226 -43.834,318.63 H 629.605 C 600.669,355.279 585.789,249.048 585.771,143.962"
           style="fill:#cc3300;fill-opacity:1;fill-rule:evenodd;stroke:none"
           id="path41993" /><path
           d="m 585.771,143.962 c 0,-43.9 -84.375,-79.491 -188.455,-79.491 -40.31,0 -77.656,5.341 -108.298,14.434 122.895,-15.528 203.341,7.993 272.864,63.636 -12.299,68.883 -15.365,156.45 -8.81,201.968 C 404.864,296.687 285.928,330.51 179.997,400.605 l 111.726,61.987 H 629.605 C 600.669,355.279 585.789,249.048 585.771,143.962"
           style="fill:#ab2b00;fill-opacity:1;fill-rule:evenodd;stroke:none"
           id="path41995" /><path
           d="m 202.94,388.295 44.015,-253.988 -7.507,245.228 -18.339,19.212 z"
           style="fill:#ab2b00;fill-opacity:1;fill-rule:evenodd;stroke:none"
           id="path41997" /><path
           d="m 368.646,352.6 20.107,-250.822 36.7,256.071 -43.372,16.681 z"
           style="fill:#ab2b00;fill-opacity:1;fill-rule:evenodd;stroke:none"
           id="path41999" /><path
           d="m 268.445,366.197 36.899,-251.074 8.2,242.588 -18.211,24.328 z"
           style="fill:#ab2b00;fill-opacity:1;fill-rule:evenodd;stroke:none"
           id="path42001" /><path
           d="m 572.929,381.055 -44.018,-237.992 7.509,229.788 18.338,18.001 z"
           style="fill:#ab2b00;fill-opacity:1;fill-rule:evenodd;stroke:none"
           id="path42003" /><path
           d="m 505.349,361.734 -36.9,-251.075 -8.202,242.588 18.214,24.327 z"
           style="fill:#ab2b00;fill-opacity:1;fill-rule:evenodd;stroke:none"
           id="path42005" /><path
           d="m 388.753,101.778 6.991,267.499 29.709,-11.428 z m -83.409,13.345 -10.011,266.916 18.211,-24.328 z m -58.389,19.184 -22.846,245.191 15.339,0.037 z m 258.394,227.427 -36.9,-251.075 10.012,266.915 z m 23.562,-218.671 25.847,247.789 18.036,-10.502 z"
           style="fill:#e03800;fill-opacity:1;fill-rule:evenodd;stroke:none"
           id="path42007" /><path
           d="m 239.866,365.899 c -5.107,2.537 -10.182,5.164 -15.224,7.883 l -0.533,5.716 15.339,0.037 z m 72.988,-28.64 c -5.382,1.554 -10.725,3.218 -16.029,4.99 l -1.492,39.79 18.211,-24.328 z m 107.493,-15.053 c -8.711,-0.038 -17.313,0.223 -25.811,0.761 l 1.208,46.31 29.709,-11.428 z m 80.442,8.513 c -8.171,-1.664 -16.251,-3.077 -24.245,-4.241 l 1.917,51.096 26.888,-15.84 z m 49.399,-72.613 c -1.165,33.924 -0.218,64.872 2.884,86.403 -1.09,-0.353 -2.171,-0.685 -3.257,-1.026 l 4.943,47.369 18.036,-10.502 z"
           style="fill:#bf3000;fill-opacity:1;fill-rule:evenodd;stroke:none"
           id="path42009" /><path
           d="m 397.316,364.612 c 127.94,0 232.289,44.016 232.289,97.981 0,53.964 -104.349,97.981 -232.289,97.981 -127.941,0 -232.288,-44.017 -232.288,-97.981 0,-53.965 104.347,-97.981 232.288,-97.981 z"
           style="fill:none;stroke:#000000;stroke-width:1.576;stroke-linecap:butt;stroke-linejoin:miter;stroke-miterlimit:22.926;stroke-dasharray:none;stroke-opacity:1"
           id="path42011" /><path
           d="m 397.316,351.948 c 144.48,0 262.317,49.704 262.317,110.645 0,60.941 -117.837,110.646 -262.317,110.646 C 252.837,573.239 135,523.534 135,462.593 135,401.652 252.837,351.948 397.316,351.948"
           style="fill:#4a2c0f;fill-opacity:1;fill-rule:evenodd;stroke:none"
           id="path42013" /><path
           d="m 397.316,388.811 c 136.208,0 247.302,41.423 247.302,92.213 0,50.791 -111.094,92.216 -247.302,92.216 -136.209,0 -247.301,-41.425 -247.301,-92.216 0,-50.79 111.092,-92.213 247.301,-92.213"
           style="fill:#754a20;fill-opacity:1;fill-rule:evenodd;stroke:none"
           id="path42015" /><path
           d="m 397.316,442.52 c 94.452,0 171.488,28.725 171.488,63.944 0,35.22 -77.036,63.946 -171.488,63.946 -94.452,0 -171.486,-28.726 -171.486,-63.946 0,-35.219 77.034,-63.944 171.486,-63.944"
           style="fill:#663f18;fill-opacity:1;fill-rule:evenodd;stroke:none"
           id="path42017" /><path
           d="m 397.316,452.528 c -265.676,0 -176.909,200.899 -67.575,187.257 -24.828,94.199 13.429,146.026 137.627,140.131 -93.697,-43.93 56.998,-78.685 11.678,-154.311 141.455,-41.397 119.073,-173.077 -81.73,-173.077"
           style="fill:#edd4bb;fill-opacity:1;fill-rule:evenodd;stroke:none"
           id="path42019" /><path
           d="m 467.368,779.916 c -93.697,-43.93 56.998,-78.685 11.678,-154.311 93.475,-27.355 115.38,-94.126 61.562,-136.281 16.229,62.183 0.832,104.757 -74.073,129.192 62.42,72.845 -101.004,120.251 0.833,161.4"
           style="fill:#faecdf;fill-opacity:1;fill-rule:evenodd;stroke:none"
           id="path42021" /><path
           d="m 522.425,501.324 c -8.955,75.046 -147.165,43.959 -216.171,59.334 -53.134,11.84 -51.206,50.029 -4.034,75.793 -60.37,-10.309 -89.894,-82.206 -55.64,-126.693 33.661,-43.713 129.281,-60.588 275.845,-8.434"
           style="fill:#faecdf;fill-opacity:1;fill-rule:evenodd;stroke:none"
           id="path42023" /><path
           d="M 462.715,569.773 C 500.495,638.492 286.083,722.305 437.066,768.737 297.479,789.516 300.86,578.408 462.715,569.773"
           style="fill:#faecdf;fill-opacity:1;fill-rule:evenodd;stroke:none"
           id="path42025" /><path
           d="m 406.479,565.55 c -69.231,17.933 -111.77,43.372 -87.997,67.562 -82.995,-46.712 9.209,-68.194 87.997,-67.562"
           style="fill:#faecdf;fill-opacity:1;fill-rule:evenodd;stroke:none"
           id="path42027" /><path
           d="m 464.077,649.081 c 33.781,31.698 -56.302,73.82 -33.363,111.355 -74.654,-30.028 2.297,-78.48 33.363,-111.355"
           style="fill:#faecdf;fill-opacity:1;fill-rule:evenodd;stroke:none"
           id="path42029" /><path
           d="M 365.608,489.645 C 294.083,500.071 239.892,553.795 261.763,603.084 196.702,539.065 294.744,470.456 365.608,489.645"
           style="fill:#fffdfc;fill-opacity:1;fill-rule:evenodd;stroke:none"
           id="path42031" /><path
           d="M 376.946,617.9 C 354.338,652.527 354.94,741.915 395.536,761.617 327.793,750.686 335.6,635.166 376.946,617.9"
           style="fill:#fffdfc;fill-opacity:1;fill-rule:evenodd;stroke:none"
           id="path42033" /></g></g></g></svg>
